<svg xmlns="http://www.w3.org/2000/svg" xmlns:xlink="http://www.w3.org/1999/xlink" width="1920" zoomAndPan="magnify" viewBox="0 0 1440 809.999993" height="1080" preserveAspectRatio="xMidYMid meet" version="1.2"><defs><filter x="0%" y="0%" width="100%" filterUnits="objectBoundingBox" id="6a46b57905" height="100%"><feColorMatrix values="0 0 0 0 1 0 0 0 0 1 0 0 0 0 1 0 0 0 1 0" type="matrix" in="SourceGraphic"/></filter><clipPath id="5df1b2339a"><path d="M 23.03125 22.945312 L 248 22.945312 L 248 84.832031 L 23.03125 84.832031 Z M 23.03125 22.945312 "/></clipPath><clipPath id="09fe92b1a4"><path d="M 247.960938 37.945312 L 247.960938 69.832031 C 247.960938 73.808594 246.378906 77.625 243.566406 80.4375 C 240.753906 83.25 236.9375 84.832031 232.960938 84.832031 L 38.03125 84.832031 C 34.054688 84.832031 30.238281 83.25 27.425781 80.4375 C 24.613281 77.625 23.03125 73.808594 23.03125 69.832031 L 23.03125 37.945312 C 23.03125 33.96875 24.613281 30.152344 27.425781 27.339844 C 30.238281 24.527344 34.054688 22.945312 38.03125 22.945312 L 232.960938 22.945312 C 236.9375 22.945312 240.753906 24.527344 243.566406 27.339844 C 246.378906 30.152344 247.960938 33.96875 247.960938 37.945312 Z M 247.960938 37.945312 "/></clipPath><clipPath id="e1f8d33021"><path d="M 23.03125 22.945312 L 248 22.945312 L 248 85 L 23.03125 85 Z M 23.03125 22.945312 "/></clipPath><clipPath id="365b81ea7c"><path d="M 247.941406 37.945312 L 247.941406 69.824219 C 247.941406 73.800781 246.359375 77.617188 243.546875 80.429688 C 240.734375 83.242188 236.917969 84.820312 232.941406 84.820312 L 38.042969 84.820312 C 34.066406 84.820312 30.25 83.242188 27.4375 80.429688 C 24.625 77.617188 23.042969 73.800781 23.042969 69.824219 L 23.042969 37.945312 C 23.042969 33.96875 24.625 30.152344 27.4375 27.339844 C 30.25 24.527344 34.066406 22.945312 38.042969 22.945312 L 232.941406 22.945312 C 236.917969 22.945312 240.734375 24.527344 243.546875 27.339844 C 246.359375 30.152344 247.941406 33.96875 247.941406 37.945312 Z M 247.941406 37.945312 "/></clipPath><clipPath id="60c81d4e19"><rect x="0" width="270" y="0" height="108"/></clipPath><clipPath id="1f2c04fa89"><path d="M 23.03125 22.582031 L 248 22.582031 L 248 84.464844 L 23.03125 84.464844 Z M 23.03125 22.582031 "/></clipPath><clipPath id="bc52f56019"><path d="M 247.960938 37.582031 L 247.960938 69.464844 C 247.960938 73.445312 246.378906 77.261719 243.566406 80.074219 C 240.753906 82.886719 236.9375 84.464844 232.960938 84.464844 L 38.03125 84.464844 C 34.054688 84.464844 30.238281 82.886719 27.425781 80.074219 C 24.613281 77.261719 23.03125 73.445312 23.03125 69.464844 L 23.03125 37.582031 C 23.03125 33.605469 24.613281 29.789062 27.425781 26.976562 C 30.238281 24.164062 34.054688 22.582031 38.03125 22.582031 L 232.960938 22.582031 C 236.9375 22.582031 240.753906 24.164062 243.566406 26.976562 C 246.378906 29.789062 247.960938 33.605469 247.960938 37.582031 Z M 247.960938 37.582031 "/></clipPath><clipPath id="968a003e63"><path d="M 23.03125 22.582031 L 248 22.582031 L 248 84.832031 L 23.03125 84.832031 Z M 23.03125 22.582031 "/></clipPath><clipPath id="cca2ab8253"><path d="M 247.941406 37.582031 L 247.941406 69.460938 C 247.941406 73.4375 246.359375 77.253906 243.546875 80.066406 C 240.734375 82.878906 236.917969 84.457031 232.941406 84.457031 L 38.042969 84.457031 C 34.066406 84.457031 30.25 82.878906 27.4375 80.066406 C 24.625 77.253906 23.042969 73.4375 23.042969 69.460938 L 23.042969 37.582031 C 23.042969 33.601562 24.625 29.789062 27.4375 26.976562 C 30.25 24.164062 34.066406 22.582031 38.042969 22.582031 L 232.941406 22.582031 C 236.917969 22.582031 240.734375 24.164062 243.546875 26.976562 C 246.359375 29.789062 247.941406 33.601562 247.941406 37.582031 Z M 247.941406 37.582031 "/></clipPath><clipPath id="9bd5f58669"><rect x="0" width="270" y="0" height="108"/></clipPath><clipPath id="270d416557"><path d="M 22.914062 22.945312 L 247.96875 22.945312 L 247.96875 84.832031 L 22.914062 84.832031 Z M 22.914062 22.945312 "/></clipPath><clipPath id="a367648f86"><path d="M 247.839844 37.945312 L 247.839844 69.832031 C 247.839844 73.808594 246.261719 77.625 243.449219 80.4375 C 240.636719 83.25 236.820312 84.832031 232.839844 84.832031 L 37.914062 84.832031 C 33.9375 84.832031 30.121094 83.25 27.308594 80.4375 C 24.496094 77.625 22.914062 73.808594 22.914062 69.832031 L 22.914062 37.945312 C 22.914062 33.96875 24.496094 30.152344 27.308594 27.339844 C 30.121094 24.527344 33.9375 22.945312 37.914062 22.945312 L 232.839844 22.945312 C 236.820312 22.945312 240.636719 24.527344 243.449219 27.339844 C 246.261719 30.152344 247.839844 33.96875 247.839844 37.945312 Z M 247.839844 37.945312 "/></clipPath><clipPath id="f2e178e309"><path d="M 22.914062 22.945312 L 247.914062 22.945312 L 247.914062 85 L 22.914062 85 Z M 22.914062 22.945312 "/></clipPath><clipPath id="2971ed8cbe"><path d="M 247.820312 37.945312 L 247.820312 69.824219 C 247.820312 73.800781 246.242188 77.617188 243.429688 80.429688 C 240.617188 83.242188 236.800781 84.820312 232.824219 84.820312 L 37.925781 84.820312 C 33.945312 84.820312 30.132812 83.242188 27.320312 80.429688 C 24.507812 77.617188 22.925781 73.800781 22.925781 69.824219 L 22.925781 37.945312 C 22.925781 33.96875 24.507812 30.152344 27.320312 27.339844 C 30.132812 24.527344 33.945312 22.945312 37.925781 22.945312 L 232.824219 22.945312 C 236.800781 22.945312 240.617188 24.527344 243.429688 27.339844 C 246.242188 30.152344 247.820312 33.96875 247.820312 37.945312 Z M 247.820312 37.945312 "/></clipPath><clipPath id="ce6827484c"><rect x="0" width="269" y="0" height="108"/></clipPath><clipPath id="75d2aac0b1"><path d="M 22.914062 22.582031 L 247.96875 22.582031 L 247.96875 84.464844 L 22.914062 84.464844 Z M 22.914062 22.582031 "/></clipPath><clipPath id="3c69f6dc1d"><path d="M 247.839844 37.582031 L 247.839844 69.464844 C 247.839844 73.445312 246.261719 77.261719 243.449219 80.074219 C 240.636719 82.886719 236.820312 84.464844 232.839844 84.464844 L 37.914062 84.464844 C 33.9375 84.464844 30.121094 82.886719 27.308594 80.074219 C 24.496094 77.261719 22.914062 73.445312 22.914062 69.464844 L 22.914062 37.582031 C 22.914062 33.605469 24.496094 29.789062 27.308594 26.976562 C 30.121094 24.164062 33.9375 22.582031 37.914062 22.582031 L 232.839844 22.582031 C 236.820312 22.582031 240.636719 24.164062 243.449219 26.976562 C 246.261719 29.789062 247.839844 33.605469 247.839844 37.582031 Z M 247.839844 37.582031 "/></clipPath><clipPath id="adcdcc3afe"><path d="M 22.914062 22.582031 L 247.914062 22.582031 L 247.914062 84.832031 L 22.914062 84.832031 Z M 22.914062 22.582031 "/></clipPath><clipPath id="0c47c49d49"><path d="M 247.820312 37.582031 L 247.820312 69.460938 C 247.820312 73.4375 246.242188 77.253906 243.429688 80.066406 C 240.617188 82.878906 236.800781 84.457031 232.824219 84.457031 L 37.925781 84.457031 C 33.945312 84.457031 30.132812 82.878906 27.320312 80.066406 C 24.507812 77.253906 22.925781 73.4375 22.925781 69.460938 L 22.925781 37.582031 C 22.925781 33.601562 24.507812 29.789062 27.320312 26.976562 C 30.132812 24.164062 33.945312 22.582031 37.925781 22.582031 L 232.824219 22.582031 C 236.800781 22.582031 240.617188 24.164062 243.429688 26.976562 C 246.242188 29.789062 247.820312 33.601562 247.820312 37.582031 Z M 247.820312 37.582031 "/></clipPath><clipPath id="931029dd36"><rect x="0" width="269" y="0" height="108"/></clipPath></defs><g id="9337117a76"><rect x="0" width="1440" y="0" height="809.999993" style="fill:#ffffff;fill-opacity:1;stroke:none;"/><rect x="0" width="1440" y="0" height="809.999993" style="fill:#aebfbc;fill-opacity:1;stroke:none;"/><g mask="url(#26ca78e4b5)" transform="matrix(1,0,0,1,231,259)"><g clip-path="url(#60c81d4e19)"><g clip-rule="nonzero" clip-path="url(#5df1b2339a)"><g clip-rule="nonzero" clip-path="url(#09fe92b1a4)"><path style=" stroke:none;fill-rule:nonzero;fill:#ffffff;fill-opacity:1;" d="M 23.03125 22.945312 L 247.84375 22.945312 L 247.84375 84.832031 L 23.03125 84.832031 Z M 23.03125 22.945312 "/></g></g><g clip-rule="nonzero" clip-path="url(#e1f8d33021)"><g clip-rule="nonzero" clip-path="url(#365b81ea7c)"><path style="fill:none;stroke-width:14;stroke-linecap:butt;stroke-linejoin:miter;stroke:#2d2b2b;stroke-opacity:1;stroke-miterlimit:4;" d="M 299.862706 19.998014 L 299.862706 62.503225 C 299.862706 67.805308 297.753331 72.89385 294.003331 76.64385 C 290.25333 80.393851 285.164789 82.498017 279.862705 82.498017 L 19.998109 82.498017 C 14.696025 82.498017 9.607483 80.393851 5.857483 76.64385 C 2.107483 72.89385 -0.00189244 67.805308 -0.00189244 62.503225 L -0.00189244 19.998014 C -0.00189244 14.695931 2.107483 9.607389 5.857483 5.857388 C 9.607483 2.107388 14.696025 -0.00198682 19.998109 -0.00198682 L 279.862705 -0.00198682 C 285.164789 -0.00198682 290.25333 2.107388 294.003331 5.857388 C 297.753331 9.607389 299.862706 14.695931 299.862706 19.998014 Z M 299.862706 19.998014 " transform="matrix(0.75,0,0,0.75,23.044388,22.946803)"/></g></g></g><mask id="26ca78e4b5"><g filter="url(#6a46b57905)"><rect x="0" width="1440" y="0" height="809.999993" style="fill:#000000;fill-opacity:0.85;stroke:none;"/></g></mask></g><g mask="url(#2a552aa14b)" transform="matrix(1,0,0,1,231,334)"><g clip-path="url(#9bd5f58669)"><g clip-rule="nonzero" clip-path="url(#1f2c04fa89)"><g clip-rule="nonzero" clip-path="url(#bc52f56019)"><path style=" stroke:none;fill-rule:nonzero;fill:#ffffff;fill-opacity:1;" d="M 23.03125 22.582031 L 247.84375 22.582031 L 247.84375 84.464844 L 23.03125 84.464844 Z M 23.03125 22.582031 "/></g></g><g clip-rule="nonzero" clip-path="url(#968a003e63)"><g clip-rule="nonzero" clip-path="url(#cca2ab8253)"><path style="fill:none;stroke-width:14;stroke-linecap:butt;stroke-linejoin:miter;stroke:#2d2b2b;stroke-opacity:1;stroke-miterlimit:4;" d="M 299.862706 19.998644 L 299.862706 62.503855 C 299.862706 67.805938 297.753331 72.89448 294.003331 76.64448 C 290.25333 80.394481 285.164789 82.498647 279.862705 82.498647 L 19.998109 82.498647 C 14.696025 82.498647 9.607483 80.394481 5.857483 76.64448 C 2.107483 72.89448 -0.00189244 67.805938 -0.00189244 62.503855 L -0.00189244 19.998644 C -0.00189244 14.691352 2.107483 9.608019 5.857483 5.858018 C 9.607483 2.108018 14.696025 -0.00135681 19.998109 -0.00135681 L 279.862705 -0.00135681 C 285.164789 -0.00135681 290.25333 2.108018 294.003331 5.858018 C 297.753331 9.608019 299.862706 14.691352 299.862706 19.998644 Z M 299.862706 19.998644 " transform="matrix(0.75,0,0,0.75,23.044388,22.583049)"/></g></g></g><mask id="2a552aa14b"><g filter="url(#6a46b57905)"><rect x="0" width="1440" y="0" height="809.999993" style="fill:#000000;fill-opacity:0.85;stroke:none;"/></g></mask></g><g mask="url(#e05689a58e)" transform="matrix(1,0,0,1,481,259)"><g clip-path="url(#ce6827484c)"><g clip-rule="nonzero" clip-path="url(#270d416557)"><g clip-rule="nonzero" clip-path="url(#a367648f86)"><path style=" stroke:none;fill-rule:nonzero;fill:#ffffff;fill-opacity:1;" d="M 22.914062 22.945312 L 247.726562 22.945312 L 247.726562 84.832031 L 22.914062 84.832031 Z M 22.914062 22.945312 "/></g></g><g clip-rule="nonzero" clip-path="url(#f2e178e309)"><g clip-rule="nonzero" clip-path="url(#2971ed8cbe)"><path style="fill:none;stroke-width:14;stroke-linecap:butt;stroke-linejoin:miter;stroke:#2d2b2b;stroke-opacity:1;stroke-miterlimit:4;" d="M 299.858192 19.998014 L 299.858192 62.503225 C 299.858192 67.805308 297.754025 72.89385 294.004025 76.64385 C 290.254025 80.393851 285.165483 82.498017 279.863399 82.498017 L 19.998803 82.498017 C 14.691511 82.498017 9.608177 80.393851 5.858177 76.64385 C 2.108177 72.89385 -0.00119843 67.805308 -0.00119843 62.503225 L -0.00119843 19.998014 C -0.00119843 14.695931 2.108177 9.607389 5.858177 5.857388 C 9.608177 2.107388 14.691511 -0.00198682 19.998803 -0.00198682 L 279.863399 -0.00198682 C 285.165483 -0.00198682 290.254025 2.107388 294.004025 5.857388 C 297.754025 9.607389 299.858192 14.695931 299.858192 19.998014 Z M 299.858192 19.998014 " transform="matrix(0.75,0,0,0.75,22.92668,22.946803)"/></g></g></g><mask id="e05689a58e"><g filter="url(#6a46b57905)"><rect x="0" width="1440" y="0" height="809.999993" style="fill:#000000;fill-opacity:0.85;stroke:none;"/></g></mask></g><g mask="url(#e6905d36cb)" transform="matrix(1,0,0,1,481,334)"><g clip-path="url(#931029dd36)"><g clip-rule="nonzero" clip-path="url(#75d2aac0b1)"><g clip-rule="nonzero" clip-path="url(#3c69f6dc1d)"><path style=" stroke:none;fill-rule:nonzero;fill:#ba3636;fill-opacity:1;" d="M 22.914062 22.582031 L 247.726562 22.582031 L 247.726562 84.464844 L 22.914062 84.464844 Z M 22.914062 22.582031 "/></g></g><g clip-rule="nonzero" clip-path="url(#adcdcc3afe)"><g clip-rule="nonzero" clip-path="url(#0c47c49d49)"><path style="fill:none;stroke-width:14;stroke-linecap:butt;stroke-linejoin:miter;stroke:#2d2b2b;stroke-opacity:1;stroke-miterlimit:4;" d="M 299.858192 19.998644 L 299.858192 62.503855 C 299.858192 67.805938 297.754025 72.89448 294.004025 76.64448 C 290.254025 80.394481 285.165483 82.498647 279.863399 82.498647 L 19.998803 82.498647 C 14.691511 82.498647 9.608177 80.394481 5.858177 76.64448 C 2.108177 72.89448 -0.00119843 67.805938 -0.00119843 62.503855 L -0.00119843 19.998644 C -0.00119843 14.691352 2.108177 9.608019 5.858177 5.858018 C 9.608177 2.108018 14.691511 -0.00135681 19.998803 -0.00135681 L 279.863399 -0.00135681 C 285.165483 -0.00135681 290.254025 2.108018 294.004025 5.858018 C 297.754025 9.608019 299.858192 14.691352 299.858192 19.998644 Z M 299.858192 19.998644 " transform="matrix(0.75,0,0,0.75,22.92668,22.583049)"/></g></g></g><mask id="e6905d36cb"><g filter="url(#6a46b57905)"><rect x="0" width="1440" y="0" height="809.999993" style="fill:#000000;fill-opacity:0.85;stroke:none;"/></g></mask></g></g></svg>